<svg xmlns="http://www.w3.org/2000/svg" width="530.0419311523438" height="1154" viewBox="8.584814071655273 -1204 530.0419311523438 1154"><title>Neo4j Graph Visualization</title><desc>Created using Neo4j (http://www.neo4j.com/)</desc><g class="layer links"><g class="link"><path fill="#DFE1E3" d="M 122.72963898818868 -1132 C 122.72963898818868 -1102.2975140491012 330.8399088991148 -1102.2975140491012 330.8399088991148 -1068 L 323.6220556409391 -1068 C 323.6220556409391 -1097.7024859508988 115.51178573001302 -1097.7024859508988 115.51178573001302 -1132 Z"/><text font-size="10" font-family="Helvetica Neue, Helvetica, Arial, sans-serif" fill="rgb(107, 174, 214)" x="119.12071235910085" y="-1118" text-anchor="end">1 </text><text font-size="10" font-family="Helvetica Neue, Helvetica, Arial, sans-serif" fill="rgb(107, 174, 214)" x="119.12071235910085" y="-1118" text-anchor="start">estimated row</text></g><g class="link"><path fill="#DFE1E3" d="M 475.4494041746218 -1118 C 475.4494041746218 -1077.0845056908104 425.5569245570167 -1077.0845056908104 425.5569245570167 -1068 L 330.8399088991148 -1068 C 330.8399088991148 -1108.9154943091896 380.7323885167199 -1108.9154943091896 380.7323885167199 -1118 Z"/><text font-size="10" font-family="Helvetica Neue, Helvetica, Arial, sans-serif" fill="rgb(107, 174, 214)" x="428.09089634567084" y="-1104" text-anchor="end">223.386 </text><text font-size="10" font-family="Helvetica Neue, Helvetica, Arial, sans-serif" fill="rgb(107, 174, 214)" x="428.09089634567084" y="-1104" text-anchor="start">estimated rows</text></g><g class="link"><path fill="#DFE1E3" d="M 421.9479979279289 -1030 C 421.9479979279289 -989.0845056908105 393.2811229146106 -989.0845056908105 393.2811229146106 -980 L 298.56410725670867 -980 C 298.56410725670867 -1020.9154943091895 327.23098227002697 -1020.9154943091895 327.23098227002697 -1030 Z"/><text font-size="10" font-family="Helvetica Neue, Helvetica, Arial, sans-serif" fill="rgb(107, 174, 214)" x="374.58949009897793" y="-1016" text-anchor="end">223.386 </text><text font-size="10" font-family="Helvetica Neue, Helvetica, Arial, sans-serif" fill="rgb(107, 174, 214)" x="374.58949009897793" y="-1016" text-anchor="start">estimated rows</text></g><g class="link"><path fill="#DFE1E3" d="M 393.2811229146106 -908 C 393.2811229146106 -867.0845056908105 367.14524858835694 -867.0845056908105 367.14524858835694 -858 L 272.42823293045495 -858 C 272.42823293045495 -898.9154943091895 298.56410725670867 -898.9154943091895 298.56410725670867 -908 Z"/><text font-size="10" font-family="Helvetica Neue, Helvetica, Arial, sans-serif" fill="rgb(107, 174, 214)" x="345.92261508565963" y="-894" text-anchor="end">223.386 </text><text font-size="10" font-family="Helvetica Neue, Helvetica, Arial, sans-serif" fill="rgb(107, 174, 214)" x="345.92261508565963" y="-894" text-anchor="start">estimated rows</text></g><g class="link"><path fill="#DFE1E3" d="M 364.30527081922617 -800 C 364.30527081922617 -759.0845056908105 341.3731132739425 -759.0845056908105 341.3731132739425 -750 L 252.33605315430196 -750 C 252.33605315430196 -790.9154943091895 275.26821069958567 -790.9154943091895 275.26821069958567 -800 Z"/><text font-size="10" font-family="Helvetica Neue, Helvetica, Arial, sans-serif" fill="rgb(107, 174, 214)" x="319.7867407594059" y="-786" text-anchor="end">105.042 </text><text font-size="10" font-family="Helvetica Neue, Helvetica, Arial, sans-serif" fill="rgb(107, 174, 214)" x="319.7867407594059" y="-786" text-anchor="start">estimated rows</text></g><g class="link"><path fill="#DFE1E3" d="M 340.29032283388875 -580 C 340.29032283388875 -539.0845056908105 321.1926999878383 -539.0845056908105 321.1926999878383 -530 L 234.32122074830522 -530 C 234.32122074830522 -570.9154943091895 253.41884359435568 -570.9154943091895 253.41884359435568 -580 Z"/><text font-size="10" font-family="Helvetica Neue, Helvetica, Arial, sans-serif" fill="rgb(107, 174, 214)" x="296.8545832141222" y="-566" text-anchor="end">78.782 </text><text font-size="10" font-family="Helvetica Neue, Helvetica, Arial, sans-serif" fill="rgb(107, 174, 214)" x="296.8545832141222" y="-566" text-anchor="start">estimated rows</text></g><g class="link"><path fill="#DFE1E3" d="M 321.1926999878383 -444 C 321.1926999878383 -403.0845056908105 306.45210368984465 -403.0845056908105 306.45210368984465 -394 L 219.58062445031157 -394 C 219.58062445031157 -434.9154943091895 234.32122074830522 -434.9154943091895 234.32122074830522 -444 Z"/><text font-size="10" font-family="Helvetica Neue, Helvetica, Arial, sans-serif" fill="rgb(107, 174, 214)" x="277.75696036807176" y="-430" text-anchor="end">78.782 </text><text font-size="10" font-family="Helvetica Neue, Helvetica, Arial, sans-serif" fill="rgb(107, 174, 214)" x="277.75696036807176" y="-430" text-anchor="start">estimated rows</text></g><g class="link"><path fill="#DFE1E3" d="M 266.62529069916593 -274 C 266.62529069916593 -246.7024859508988 256.62754239943206 -246.7024859508988 256.62754239943206 -224 L 249.40968914125637 -224 C 249.40968914125637 -251.2975140491012 259.4074374409903 -251.2975140491012 259.4074374409903 -274 Z"/><text font-size="10" font-family="Helvetica Neue, Helvetica, Arial, sans-serif" fill="rgb(107, 174, 214)" x="263.0163640700781" y="-260" text-anchor="end">1 </text><text font-size="10" font-family="Helvetica Neue, Helvetica, Arial, sans-serif" fill="rgb(107, 174, 214)" x="263.0163640700781" y="-260" text-anchor="start">estimated row</text></g><g class="link"><path fill="#DFE1E3" d="M 256.627542399432 -118 C 256.627542399432 -90.7024859508988 251.60241043149753 -90.7024859508988 251.60241043149753 -68 L 244.38455717332187 -68 C 244.38455717332187 -95.2975140491012 249.40968914125634 -95.2975140491012 249.40968914125634 -118 Z"/><text font-size="10" font-family="Helvetica Neue, Helvetica, Arial, sans-serif" fill="rgb(107, 174, 214)" x="253.01861577034418" y="-104" text-anchor="end">1 </text><text font-size="10" font-family="Helvetica Neue, Helvetica, Arial, sans-serif" fill="rgb(107, 174, 214)" x="253.01861577034418" y="-104" text-anchor="start">estimated row</text></g></g><g class="layer operators"><g class="operator" transform="translate(137.9934844970703, -68)"><rect class="background" width="220" height="18" rx="4" ry="4" fill="rgb(255, 255, 255)"/><g class="header" pointer-events="all"><path class="banner" d="M 216 0 A 4 4 0 0 1 220 4 L 220 14 A 4 4 0 0 1 216 18 L 4 18 A 4 4 0 0 1 0 14 L 0 4 A 4 4 0 0 1 4 0 Z" style="fill: rgb(198, 219, 239);"/><text class="title" font-size="11" font-family="Helvetica Neue, Helvetica, Arial, sans-serif" x="18" y="13" fill="#000000">Result</text></g><path class="cost" fill="#F25A29" d="M 216 18 A 4 4 0 0 1 216 18 L 4 18 A 4 4 0 0 1 4 18 Z"/><rect class="b-outline" width="220" rx="4" ry="4" fill="none" stroke-width="1" style="stroke: rgb(139, 153, 167);" height="18"/></g><g class="operator" transform="translate(143.01861572265625, -224)"><rect class="background" width="220" height="106" rx="4" ry="4" fill="rgb(255, 255, 255)"/><g class="header" pointer-events="all"><path class="banner" d="M 216 0 A 4 4 0 0 1 220 4 L 220 14 A 4 4 0 0 1 220 18 L 0 18 A 4 4 0 0 1 0 14 L 0 4 A 4 4 0 0 1 4 0 Z" style="fill: rgb(198, 219, 239);"/><path class="expand" fill="#000000" d="M -5 -10 L 8.66 0 L -5 10 Z" transform="translate(9, 9) rotate(90) scale(0.5,0.5)"/><text class="title" font-size="11" font-family="Helvetica Neue, Helvetica, Arial, sans-serif" x="18" y="13" fill="#000000">ProduceResults@neo4j</text></g><path class="cost" fill="#F25A29" d="M 216 106 A 4 4 0 0 1 216 106 L 4 106 A 4 4 0 0 1 4 106 Z"/><rect class="b-outline" width="220" rx="4" ry="4" fill="none" stroke-width="1" style="stroke: rgb(139, 153, 167);" height="106"/><g class="detail identifiers" transform="translate(0, 32)" font-family="'Fira Code',Monaco,'Courier New',Terminal,monospace"><text font-size="10" x="3" text-anchor="start" fill="black" font-family="Helvetica Neue, Helvetica, Arial, sans-serif">`point.distance(q, p.coord)`, q, p,</text></g><g class="detail identifiers" transform="translate(0, 46)" font-family="'Fira Code',Monaco,'Courier New',Terminal,monospace"><text font-size="10" x="3" text-anchor="start" fill="black" font-family="Helvetica Neue, Helvetica, Arial, sans-serif"> r, w</text></g><g class="detail padding" transform="translate(0, 60)" font-family="'Helvetica Neue',Helvetica,Arial,sans-serif"><text font-size="10" x="3" text-anchor="start" fill="black" font-family="Helvetica Neue, Helvetica, Arial, sans-serif"/><path class="divider" visibility="visible" d="M 0 -6 L 220 -6" stroke="#DFE1E3"/></g><g class="detail expression" transform="translate(0, 66)" font-family="'Fira Code',Monaco,'Courier New',Terminal,monospace"><text font-size="10" x="3" text-anchor="start" fill="black" font-family="Helvetica Neue, Helvetica, Arial, sans-serif">p, `point.distance(q, p.coord)`</text></g><g class="detail padding" transform="translate(0, 80)" font-family="'Helvetica Neue',Helvetica,Arial,sans-serif"><text font-size="10" x="3" text-anchor="start" fill="black" font-family="Helvetica Neue, Helvetica, Arial, sans-serif"/><path class="divider" visibility="visible" d="M 0 -6 L 220 -6" stroke="#DFE1E3"/></g><g class="detail order" transform="translate(0, 86)" font-family="'Helvetica Neue',Helvetica,Arial,sans-serif"><text font-size="10" x="3" text-anchor="start" fill="black" font-family="Helvetica Neue, Helvetica, Arial, sans-serif">Ordered by `point.distance(q, p.</text></g><g class="detail order" transform="translate(0, 100)" font-family="'Helvetica Neue',Helvetica,Arial,sans-serif"><text font-size="10" x="3" text-anchor="start" fill="black" font-family="Helvetica Neue, Helvetica, Arial, sans-serif">coord)` ASC</text></g></g><g class="operator" transform="translate(153.016357421875, -394)"><rect class="background" width="220" height="120" rx="4" ry="4" fill="rgb(255, 255, 255)"/><g class="header" pointer-events="all"><path class="banner" d="M 216 0 A 4 4 0 0 1 220 4 L 220 14 A 4 4 0 0 1 220 18 L 0 18 A 4 4 0 0 1 0 14 L 0 4 A 4 4 0 0 1 4 0 Z" style="fill: rgb(107, 174, 214);"/><path class="expand" fill="#FFFFFF" d="M -5 -10 L 8.66 0 L -5 10 Z" transform="translate(9, 9) rotate(90) scale(0.5,0.5)"/><text class="title" font-size="11" font-family="Helvetica Neue, Helvetica, Arial, sans-serif" x="18" y="13" fill="#FFFFFF">Top@neo4j</text></g><path class="cost" fill="#F25A29" d="M 216 120 A 4 4 0 0 1 216 120 L 4 120 A 4 4 0 0 1 4 120 Z"/><rect class="b-outline" width="220" rx="4" ry="4" fill="none" stroke-width="1" style="stroke: rgb(75, 122, 150);" height="120"/><g class="detail identifiers" transform="translate(0, 32)" font-family="'Fira Code',Monaco,'Courier New',Terminal,monospace"><text font-size="10" x="3" text-anchor="start" fill="black" font-family="Helvetica Neue, Helvetica, Arial, sans-serif">`point.distance(q, p.coord)`, q, p,</text></g><g class="detail identifiers" transform="translate(0, 46)" font-family="'Fira Code',Monaco,'Courier New',Terminal,monospace"><text font-size="10" x="3" text-anchor="start" fill="black" font-family="Helvetica Neue, Helvetica, Arial, sans-serif"> r, w</text></g><g class="detail padding" transform="translate(0, 60)" font-family="'Helvetica Neue',Helvetica,Arial,sans-serif"><text font-size="10" x="3" text-anchor="start" fill="black" font-family="Helvetica Neue, Helvetica, Arial, sans-serif"/><path class="divider" visibility="visible" d="M 0 -6 L 220 -6" stroke="#DFE1E3"/></g><g class="detail expression" transform="translate(0, 66)" font-family="'Fira Code',Monaco,'Courier New',Terminal,monospace"><text font-size="10" x="3" text-anchor="start" fill="black" font-family="Helvetica Neue, Helvetica, Arial, sans-serif">`point.distance(q, p.coord)` ASC </text></g><g class="detail expression" transform="translate(0, 80)" font-family="'Fira Code',Monaco,'Courier New',Terminal,monospace"><text font-size="10" x="3" text-anchor="start" fill="black" font-family="Helvetica Neue, Helvetica, Arial, sans-serif">LIMIT 1</text></g><g class="detail padding" transform="translate(0, 94)" font-family="'Helvetica Neue',Helvetica,Arial,sans-serif"><text font-size="10" x="3" text-anchor="start" fill="black" font-family="Helvetica Neue, Helvetica, Arial, sans-serif"/><path class="divider" visibility="visible" d="M 0 -6 L 220 -6" stroke="#DFE1E3"/></g><g class="detail order" transform="translate(0, 100)" font-family="'Helvetica Neue',Helvetica,Arial,sans-serif"><text font-size="10" x="3" text-anchor="start" fill="black" font-family="Helvetica Neue, Helvetica, Arial, sans-serif">Ordered by `point.distance(q, p.</text></g><g class="detail order" transform="translate(0, 114)" font-family="'Helvetica Neue',Helvetica,Arial,sans-serif"><text font-size="10" x="3" text-anchor="start" fill="black" font-family="Helvetica Neue, Helvetica, Arial, sans-serif">coord)` ASC</text></g></g><g class="operator" transform="translate(167.7569580078125, -530)"><rect class="background" width="220" height="86" rx="4" ry="4" fill="rgb(255, 255, 255)"/><g class="header" pointer-events="all"><path class="banner" d="M 216 0 A 4 4 0 0 1 220 4 L 220 14 A 4 4 0 0 1 220 18 L 0 18 A 4 4 0 0 1 0 14 L 0 4 A 4 4 0 0 1 4 0 Z" style="fill: rgb(107, 174, 214);"/><path class="expand" fill="#FFFFFF" d="M -5 -10 L 8.66 0 L -5 10 Z" transform="translate(9, 9) rotate(90) scale(0.5,0.5)"/><text class="title" font-size="11" font-family="Helvetica Neue, Helvetica, Arial, sans-serif" x="18" y="13" fill="#FFFFFF">Projection@neo4j</text></g><path class="cost" fill="#F25A29" d="M 216 86 A 4 4 0 0 1 216 86 L 4 86 A 4 4 0 0 1 4 86 Z"/><rect class="b-outline" width="220" rx="4" ry="4" fill="none" stroke-width="1" style="stroke: rgb(75, 122, 150);" height="86"/><g class="detail identifiers" transform="translate(0, 32)" font-family="'Fira Code',Monaco,'Courier New',Terminal,monospace"><text font-size="10" x="3" text-anchor="start" fill="black" font-family="Helvetica Neue, Helvetica, Arial, sans-serif">`point.distance(q, p.coord)`, q, p,</text></g><g class="detail identifiers" transform="translate(0, 46)" font-family="'Fira Code',Monaco,'Courier New',Terminal,monospace"><text font-size="10" x="3" text-anchor="start" fill="black" font-family="Helvetica Neue, Helvetica, Arial, sans-serif"> r, w</text></g><g class="detail padding" transform="translate(0, 60)" font-family="'Helvetica Neue',Helvetica,Arial,sans-serif"><text font-size="10" x="3" text-anchor="start" fill="black" font-family="Helvetica Neue, Helvetica, Arial, sans-serif"/><path class="divider" visibility="visible" d="M 0 -6 L 220 -6" stroke="#DFE1E3"/></g><g class="detail expression" transform="translate(0, 66)" font-family="'Fira Code',Monaco,'Courier New',Terminal,monospace"><text font-size="10" x="3" text-anchor="start" fill="black" font-family="Helvetica Neue, Helvetica, Arial, sans-serif">point.distance(q, cache[p.coord]) </text></g><g class="detail expression" transform="translate(0, 80)" font-family="'Fira Code',Monaco,'Courier New',Terminal,monospace"><text font-size="10" x="3" text-anchor="start" fill="black" font-family="Helvetica Neue, Helvetica, Arial, sans-serif">AS `point.distance(q, p.coord)`</text></g></g><g class="operator" transform="translate(186.85458374023438, -750)"><rect class="background" width="220" height="170" rx="4" ry="4" fill="rgb(255, 255, 255)"/><g class="header" pointer-events="all"><path class="banner" d="M 216 0 A 4 4 0 0 1 220 4 L 220 14 A 4 4 0 0 1 220 18 L 0 18 A 4 4 0 0 1 0 14 L 0 4 A 4 4 0 0 1 4 0 Z" style="fill: rgb(33, 113, 181);"/><path class="expand" fill="#FFFFFF" d="M -5 -10 L 8.66 0 L -5 10 Z" transform="translate(9, 9) rotate(90) scale(0.5,0.5)"/><text class="title" font-size="11" font-family="Helvetica Neue, Helvetica, Arial, sans-serif" x="18" y="13" fill="#FFFFFF">Filter@neo4j</text></g><path class="cost" fill="#F25A29" d="M 216 170 A 4 4 0 0 1 216 170 L 4 170 A 4 4 0 0 1 4 170 Z"/><rect class="b-outline" width="220" rx="4" ry="4" fill="none" stroke-width="1" style="stroke: rgb(23, 79, 127);" height="170"/><g class="detail identifiers" transform="translate(0, 32)" font-family="'Fira Code',Monaco,'Courier New',Terminal,monospace"><text font-size="10" x="3" text-anchor="start" fill="black" font-family="Helvetica Neue, Helvetica, Arial, sans-serif">q, p, w, r</text></g><g class="detail padding" transform="translate(0, 46)" font-family="'Helvetica Neue',Helvetica,Arial,sans-serif"><text font-size="10" x="3" text-anchor="start" fill="black" font-family="Helvetica Neue, Helvetica, Arial, sans-serif"/><path class="divider" visibility="visible" d="M 0 -6 L 220 -6" stroke="#DFE1E3"/></g><g class="detail expression" transform="translate(0, 52)" font-family="'Fira Code',Monaco,'Courier New',Terminal,monospace"><text font-size="10" x="3" text-anchor="start" fill="black" font-family="Helvetica Neue, Helvetica, Arial, sans-serif">r:Point AND CoerceToPredicate(CASE </text></g><g class="detail expression" transform="translate(0, 66)" font-family="'Fira Code',Monaco,'Courier New',Terminal,monospace"><text font-size="10" x="3" text-anchor="start" fill="black" font-family="Helvetica Neue, Helvetica, Arial, sans-serif">WHEN $autostring_3 = $autostring_4 </text></g><g class="detail expression" transform="translate(0, 80)" font-family="'Fira Code',Monaco,'Courier New',Terminal,monospace"><text font-size="10" x="3" text-anchor="start" fill="black" font-family="Helvetica Neue, Helvetica, Arial, sans-serif">THEN not w.crossTimeFoot = Infinity</text></g><g class="detail expression" transform="translate(0, 94)" font-family="'Fira Code',Monaco,'Courier New',Terminal,monospace"><text font-size="10" x="3" text-anchor="start" fill="black" font-family="Helvetica Neue, Helvetica, Arial, sans-serif"> WHEN $autostring_5 = $autostring_6</text></g><g class="detail expression" transform="translate(0, 108)" font-family="'Fira Code',Monaco,'Courier New',Terminal,monospace"><text font-size="10" x="3" text-anchor="start" fill="black" font-family="Helvetica Neue, Helvetica, Arial, sans-serif"> THEN not w.crossTimeBicycle = </text></g><g class="detail expression" transform="translate(0, 122)" font-family="'Fira Code',Monaco,'Courier New',Terminal,monospace"><text font-size="10" x="3" text-anchor="start" fill="black" font-family="Helvetica Neue, Helvetica, Arial, sans-serif">Infinity WHEN $autostring_7 = $</text></g><g class="detail expression" transform="translate(0, 136)" font-family="'Fira Code',Monaco,'Courier New',Terminal,monospace"><text font-size="10" x="3" text-anchor="start" fill="black" font-family="Helvetica Neue, Helvetica, Arial, sans-serif">autostring_8 THEN not w.</text></g><g class="detail expression" transform="translate(0, 150)" font-family="'Fira Code',Monaco,'Courier New',Terminal,monospace"><text font-size="10" x="3" text-anchor="start" fill="black" font-family="Helvetica Neue, Helvetica, Arial, sans-serif">crossTimeMotorVehicle = Infinity </text></g><g class="detail expression" transform="translate(0, 164)" font-family="'Fira Code',Monaco,'Courier New',Terminal,monospace"><text font-size="10" x="3" text-anchor="start" fill="black" font-family="Helvetica Neue, Helvetica, Arial, sans-serif">END)</text></g></g><g class="operator" transform="translate(209.7867431640625, -858)"><rect class="background" width="220" height="58" rx="4" ry="4" fill="rgb(255, 255, 255)"/><g class="header" pointer-events="all"><path class="banner" d="M 216 0 A 4 4 0 0 1 220 4 L 220 14 A 4 4 0 0 1 220 18 L 0 18 A 4 4 0 0 1 0 14 L 0 4 A 4 4 0 0 1 4 0 Z" style="fill: rgb(8, 81, 156);"/><path class="expand" fill="#FFFFFF" d="M -5 -10 L 8.66 0 L -5 10 Z" transform="translate(9, 9) rotate(90) scale(0.5,0.5)"/><text class="title" font-size="11" font-family="Helvetica Neue, Helvetica, Arial, sans-serif" x="18" y="13" fill="#FFFFFF">Expand(All)@neo4j</text></g><path class="cost" fill="#F25A29" d="M 216 58 A 4 4 0 0 1 216 58 L 4 58 A 4 4 0 0 1 4 58 Z"/><rect class="b-outline" width="220" rx="4" ry="4" fill="none" stroke-width="1" style="stroke: rgb(6, 57, 109);" height="58"/><g class="detail identifiers" transform="translate(0, 32)" font-family="'Fira Code',Monaco,'Courier New',Terminal,monospace"><text font-size="10" x="3" text-anchor="start" fill="black" font-family="Helvetica Neue, Helvetica, Arial, sans-serif">q, p, w, r</text></g><g class="detail padding" transform="translate(0, 46)" font-family="'Helvetica Neue',Helvetica,Arial,sans-serif"><text font-size="10" x="3" text-anchor="start" fill="black" font-family="Helvetica Neue, Helvetica, Arial, sans-serif"/><path class="divider" visibility="visible" d="M 0 -6 L 220 -6" stroke="#DFE1E3"/></g><g class="detail expression" transform="translate(0, 52)" font-family="'Fira Code',Monaco,'Courier New',Terminal,monospace"><text font-size="10" x="3" text-anchor="start" fill="black" font-family="Helvetica Neue, Helvetica, Arial, sans-serif">(p)-[w:CONNECTS]-&gt;(r)</text></g></g><g class="operator" transform="translate(235.92262268066406, -980)"><rect class="background" width="220" height="72" rx="4" ry="4" fill="rgb(255, 255, 255)"/><g class="header" pointer-events="all"><path class="banner" d="M 216 0 A 4 4 0 0 1 220 4 L 220 14 A 4 4 0 0 1 220 18 L 0 18 A 4 4 0 0 1 0 14 L 0 4 A 4 4 0 0 1 4 0 Z" style="fill: rgb(33, 113, 181);"/><path class="expand" fill="#FFFFFF" d="M -5 -10 L 8.66 0 L -5 10 Z" transform="translate(9, 9) rotate(90) scale(0.5,0.5)"/><text class="title" font-size="11" font-family="Helvetica Neue, Helvetica, Arial, sans-serif" x="18" y="13" fill="#FFFFFF">Filter@neo4j</text></g><path class="cost" fill="#F25A29" d="M 216 72 A 4 4 0 0 1 216 72 L 4 72 A 4 4 0 0 1 4 72 Z"/><rect class="b-outline" width="220" rx="4" ry="4" fill="none" stroke-width="1" style="stroke: rgb(23, 79, 127);" height="72"/><g class="detail identifiers" transform="translate(0, 32)" font-family="'Fira Code',Monaco,'Courier New',Terminal,monospace"><text font-size="10" x="3" text-anchor="start" fill="black" font-family="Helvetica Neue, Helvetica, Arial, sans-serif">q, p</text></g><g class="detail padding" transform="translate(0, 46)" font-family="'Helvetica Neue',Helvetica,Arial,sans-serif"><text font-size="10" x="3" text-anchor="start" fill="black" font-family="Helvetica Neue, Helvetica, Arial, sans-serif"/><path class="divider" visibility="visible" d="M 0 -6 L 220 -6" stroke="#DFE1E3"/></g><g class="detail expression" transform="translate(0, 52)" font-family="'Fira Code',Monaco,'Courier New',Terminal,monospace"><text font-size="10" x="3" text-anchor="start" fill="black" font-family="Helvetica Neue, Helvetica, Arial, sans-serif">point.distance(q, cache[p.coord]) &lt;</text></g><g class="detail expression" transform="translate(0, 66)" font-family="'Fira Code',Monaco,'Courier New',Terminal,monospace"><text font-size="10" x="3" text-anchor="start" fill="black" font-family="Helvetica Neue, Helvetica, Arial, sans-serif"> $autoint_2</text></g></g><g class="operator" transform="translate(264.5894775390625, -1068)"><rect class="background" width="220" height="38" rx="4" ry="4" fill="rgb(255, 255, 255)"/><g class="header" pointer-events="all"><path class="banner" d="M 216 0 A 4 4 0 0 1 220 4 L 220 14 A 4 4 0 0 1 220 18 L 0 18 A 4 4 0 0 1 0 14 L 0 4 A 4 4 0 0 1 4 0 Z" style="fill: rgb(33, 113, 181);"/><path class="expand" fill="#FFFFFF" d="M -5 -10 L 8.66 0 L -5 10 Z" transform="translate(9, 9) rotate(90) scale(0.5,0.5)"/><text class="title" font-size="11" font-family="Helvetica Neue, Helvetica, Arial, sans-serif" x="18" y="13" fill="#FFFFFF">Apply@neo4j</text></g><path class="cost" fill="#F25A29" d="M 216 38 A 4 4 0 0 1 216 38 L 4 38 A 4 4 0 0 1 4 38 Z"/><rect class="b-outline" width="220" rx="4" ry="4" fill="none" stroke-width="1" style="stroke: rgb(23, 79, 127);" height="38"/><g class="detail identifiers" transform="translate(0, 32)" font-family="'Fira Code',Monaco,'Courier New',Terminal,monospace"><text font-size="10" x="3" text-anchor="start" fill="black" font-family="Helvetica Neue, Helvetica, Arial, sans-serif">q, p</text></g></g><g class="operator" transform="translate(9.120712280273438, -1204)"><rect class="background" width="220" height="72" rx="4" ry="4" fill="rgb(255, 255, 255)"/><g class="header" pointer-events="all"><path class="banner" d="M 216 0 A 4 4 0 0 1 220 4 L 220 14 A 4 4 0 0 1 220 18 L 0 18 A 4 4 0 0 1 0 14 L 0 4 A 4 4 0 0 1 4 0 Z" style="fill: rgb(107, 174, 214);"/><path class="expand" fill="#FFFFFF" d="M -5 -10 L 8.66 0 L -5 10 Z" transform="translate(9, 9) rotate(90) scale(0.5,0.5)"/><text class="title" font-size="11" font-family="Helvetica Neue, Helvetica, Arial, sans-serif" x="18" y="13" fill="#FFFFFF">Projection@neo4j</text></g><path class="cost" fill="#F25A29" d="M 216 72 A 4 4 0 0 1 216 72 L 4 72 A 4 4 0 0 1 4 72 Z"/><rect class="b-outline" width="220" rx="4" ry="4" fill="none" stroke-width="1" style="stroke: rgb(75, 122, 150);" height="72"/><g class="detail identifiers" transform="translate(0, 32)" font-family="'Fira Code',Monaco,'Courier New',Terminal,monospace"><text font-size="10" x="3" text-anchor="start" fill="black" font-family="Helvetica Neue, Helvetica, Arial, sans-serif">q</text></g><g class="detail padding" transform="translate(0, 46)" font-family="'Helvetica Neue',Helvetica,Arial,sans-serif"><text font-size="10" x="3" text-anchor="start" fill="black" font-family="Helvetica Neue, Helvetica, Arial, sans-serif"/><path class="divider" visibility="visible" d="M 0 -6 L 220 -6" stroke="#DFE1E3"/></g><g class="detail expression" transform="translate(0, 52)" font-family="'Fira Code',Monaco,'Courier New',Terminal,monospace"><text font-size="10" x="3" text-anchor="start" fill="black" font-family="Helvetica Neue, Helvetica, Arial, sans-serif">point({latitude: $autodouble_0, </text></g><g class="detail expression" transform="translate(0, 66)" font-family="'Fira Code',Monaco,'Courier New',Terminal,monospace"><text font-size="10" x="3" text-anchor="start" fill="black" font-family="Helvetica Neue, Helvetica, Arial, sans-serif">longitude: $autodouble_1}) AS q</text></g></g><g class="operator" transform="translate(318.09088134765625, -1204)"><rect class="background" width="220" height="86" rx="4" ry="4" fill="rgb(255, 255, 255)"/><g class="header" pointer-events="all"><path class="banner" d="M 216 0 A 4 4 0 0 1 220 4 L 220 14 A 4 4 0 0 1 220 18 L 0 18 A 4 4 0 0 1 0 14 L 0 4 A 4 4 0 0 1 4 0 Z" style="fill: rgb(158, 202, 225);"/><path class="expand" fill="#000000" d="M -5 -10 L 8.66 0 L -5 10 Z" transform="translate(9, 9) rotate(90) scale(0.5,0.5)"/><text class="title" font-size="11" font-family="Helvetica Neue, Helvetica, Arial, sans-serif" x="18" y="13" fill="#000000">NodeIndexSeekByRange@neo4j</text></g><path class="cost" fill="#F25A29" d="M 216 86 A 4 4 0 0 1 216 86 L 4 86 A 4 4 0 0 1 4 86 Z"/><rect class="b-outline" width="220" rx="4" ry="4" fill="none" stroke-width="1" style="stroke: rgb(111, 141, 158);" height="86"/><g class="detail identifiers" transform="translate(0, 32)" font-family="'Fira Code',Monaco,'Courier New',Terminal,monospace"><text font-size="10" x="3" text-anchor="start" fill="black" font-family="Helvetica Neue, Helvetica, Arial, sans-serif">q, p</text></g><g class="detail padding" transform="translate(0, 46)" font-family="'Helvetica Neue',Helvetica,Arial,sans-serif"><text font-size="10" x="3" text-anchor="start" fill="black" font-family="Helvetica Neue, Helvetica, Arial, sans-serif"/><path class="divider" visibility="visible" d="M 0 -6 L 220 -6" stroke="#DFE1E3"/></g><g class="detail expression" transform="translate(0, 52)" font-family="'Fira Code',Monaco,'Courier New',Terminal,monospace"><text font-size="10" x="3" text-anchor="start" fill="black" font-family="Helvetica Neue, Helvetica, Arial, sans-serif">POINT INDEX p:Point(coord) WHERE </text></g><g class="detail expression" transform="translate(0, 66)" font-family="'Fira Code',Monaco,'Courier New',Terminal,monospace"><text font-size="10" x="3" text-anchor="start" fill="black" font-family="Helvetica Neue, Helvetica, Arial, sans-serif">point.distance(coord, q) &lt; $autoint</text></g><g class="detail expression" transform="translate(0, 80)" font-family="'Fira Code',Monaco,'Courier New',Terminal,monospace"><text font-size="10" x="3" text-anchor="start" fill="black" font-family="Helvetica Neue, Helvetica, Arial, sans-serif">_2, cache[p.coord]</text></g></g></g></svg>